<?xml version="1.0" standalone="no"?>
<!DOCTYPE svg PUBLIC "-//W3C//DTD SVG 20010904//EN"
 "http://www.w3.org/TR/2001/REC-SVG-20010904/DTD/svg10.dtd">
<svg version="1.0" xmlns="http://www.w3.org/2000/svg"
 width="512.000000pt" height="512.000000pt" viewBox="0 0 512.000000 512.000000"
 preserveAspectRatio="xMidYMid meet">
<metadata>
Created by potrace 1.14, written by Peter Selinger 2001-2017
</metadata>
<g transform="translate(0.000000,512.000000) scale(0.100000,-0.100000)"
fill="#000000" stroke="none">
<path d="M2410 5102 c-49 -20 -80 -37 -315 -172 -88 -51 -178 -103 -200 -115
-22 -13 -238 -136 -480 -275 -242 -138 -557 -319 -700 -400 -143 -82 -275
-162 -293 -178 -57 -51 -112 -134 -132 -200 -19 -62 -20 -97 -20 -1192 0
-1102 0 -1129 20 -1193 22 -71 88 -169 142 -210 26 -20 637 -374 888 -515 25
-14 197 -112 382 -219 185 -106 359 -205 385 -219 26 -15 60 -35 75 -45 14
-11 28 -19 31 -19 2 0 42 -22 88 -48 131 -75 169 -87 284 -87 74 0 113 5 150
19 28 11 282 152 565 314 283 162 530 303 548 314 60 34 164 93 407 233 132
76 265 152 295 168 76 42 153 91 185 119 47 40 96 117 121 186 l24 67 0 1131
c0 1104 0 1134 -20 1197 -28 89 -102 183 -188 238 -126 80 -142 89 -146 89 -3
0 -27 13 -54 29 -26 15 -68 39 -93 53 -107 61 -385 219 -399 228 -87 53 -262
150 -270 150 -5 0 -10 4 -10 8 0 4 -15 15 -32 23 -18 8 -78 42 -133 74 -152
88 -268 155 -270 155 -1 0 -52 29 -113 64 -61 36 -131 76 -154 89 -24 14 -77
44 -118 67 -141 81 -162 87 -290 89 -89 0 -125 -3 -160 -17z"/>
</g>
</svg>
